# xmcd CD database file
#
# Track frame offsets:
#	150
#	24951
#	45277
#	67781
#	86186
#	104223
#	126595
#	149888
#	162034
#	172518
#	188612
#	219003
#
# Disc length: 3177 seconds
#
# Revision: 0
# Processed by: cddbd v1.5.1PL0 Copyright (c) Steve Scherf et al.
# Submitted via: CDex 1.51
#
DISCID=9b0c670c
DTITLE=Frank's Place Featuring Janet Planet - Big Band Reunion
DYEAR=1999
DGENRE=Jazz
TTITLE0=If I Knew the Way
TTITLE1=I Got News for You
TTITLE2=Maybe You Will Hear Me
TTITLE3=Seventh Evan
TTITLE4=That's Life
TTITLE5=Goodbye Porkpie Hat
TTITLE6=Jelly Roll
TTITLE7=Stella By Starlight
TTITLE8=On a Wonderful Day Like Today
TTITLE9=Amazing Grace
TTITLE10=East St, Louis
TTITLE11=Did You Ever Cross Over to Sneden's
EXTD=YEAR: 1999
EXTT0=
EXTT1=
EXTT2=
EXTT3=
EXTT4=
EXTT5=
EXTT6=
EXTT7=
EXTT8=
EXTT9=
EXTT10=
EXTT11=
PLAYORDER=
